<svg width="203" height="41" viewBox="0 0 203 41" fill="none" xmlns="http://www.w3.org/2000/svg">
<path d="M60.0931 16.067C60.0931 18.2465 59.0726 20.0098 57.0246 21.3287L55.7686 22.161C55.3761 22.3938 55.1121 22.5772 54.9551 22.7323V14.8962C54.9551 14.2473 54.427 13.937 53.378 13.937C52.329 13.937 51.8081 14.2473 51.8081 14.8962V31.6476C51.8081 32.2965 52.329 32.6068 53.378 32.6068C54.427 32.6068 54.9551 32.2965 54.9551 31.6476V26.5128C54.9551 26.1813 55.2191 25.8428 55.7187 25.5324L57.8666 24.1853C59.8861 26.0262 60.6211 28.0716 60.6211 31.1045V31.6476C60.6211 32.2965 61.1492 32.6068 62.1982 32.6068C63.2472 32.6068 63.7682 32.2965 63.7682 31.6476V30.3286C63.7682 27.0842 62.7477 24.806 60.3571 22.4996C62.2767 20.835 63.2472 18.6838 63.2472 16.0106V14.8962C63.2472 14.2473 62.7192 13.937 61.6701 13.937C60.6211 13.937 60.0931 14.2473 60.0931 14.8962V16.067ZM76.2063 20.5247C76.2063 22.6265 75.2073 23.8467 73.2948 23.8467C71.3752 23.8467 70.3833 22.5983 70.3833 20.5247V14.8962C70.3833 14.2473 69.8552 13.937 68.8062 13.937C67.7572 13.937 67.2291 14.2473 67.2291 14.8962V20.5035C67.2291 24.2347 69.5127 26.4917 72.9808 26.4917C74.3652 26.4917 75.4428 26.1038 76.2349 25.3209V26.929C76.2349 28.9039 75.0217 29.8843 73.0022 29.8843C71.9318 29.8843 70.9827 29.708 70.1692 29.3412C69.8267 29.186 69.5912 29.1084 69.4627 29.1084C68.7563 29.1084 68.0712 29.9407 68.0712 30.7448C68.0712 31.0551 68.2282 31.3372 68.5422 31.5982C69.5412 32.3529 71.0612 32.7126 73.1093 32.7126C74.9432 32.7126 76.4418 32.2189 77.5979 31.2385C78.7753 30.2228 79.3533 28.8475 79.3533 27.0842V14.8962C79.3533 14.2473 78.8253 13.937 77.7763 13.937C76.7273 13.937 76.2063 14.2473 76.2063 14.8962V20.5247ZM88.6159 16.7935C90.5569 16.7935 91.5275 17.8304 91.5275 19.9322C91.5275 22.027 90.5569 23.0638 88.6159 23.0638H86.4394V16.7935H88.6159ZM88.9014 25.7088C92.4694 25.7088 94.6745 23.6634 94.6745 19.9322C94.6745 16.194 92.4694 14.1486 88.9014 14.1486H84.2843C83.6278 14.1486 83.2853 14.4871 83.2853 15.129V31.6476C83.2853 32.2965 83.8134 32.6068 84.8624 32.6068C85.9114 32.6068 86.4394 32.2965 86.4394 31.6476V25.7088H88.9014ZM106.849 26.6469C106.849 28.7487 105.586 30.0677 103.723 30.0677C101.86 30.0677 100.605 28.7487 100.605 26.6469V19.904C100.605 17.8021 101.86 16.4832 103.723 16.4832C105.586 16.4832 106.849 17.8021 106.849 19.904V26.6469ZM109.967 19.7982C109.967 18.0137 109.368 16.5608 108.183 15.4675C107.006 14.3813 105.507 13.8382 103.723 13.8382C101.939 13.8382 100.448 14.3813 99.263 15.4675C98.0855 16.5608 97.4789 18.0137 97.4789 19.7982V26.7527C97.4789 28.5371 98.0855 29.9901 99.263 31.0833C100.448 32.1695 101.939 32.7126 103.723 32.7126C105.507 32.7126 107.006 32.1695 108.183 31.0833C109.368 29.9901 109.967 28.5371 109.967 26.7527V19.7982ZM118.966 16.7935C120.914 16.7935 121.884 17.8304 121.884 19.9322C121.884 22.027 120.914 23.0638 118.966 23.0638H116.789V16.7935H118.966ZM119.258 25.7088C122.826 25.7088 125.031 23.6634 125.031 19.9322C125.031 16.194 122.826 14.1486 119.258 14.1486H114.641C113.985 14.1486 113.642 14.4871 113.642 15.129V31.6476C113.642 32.2965 114.17 32.6068 115.219 32.6068C116.268 32.6068 116.789 32.2965 116.789 31.6476V25.7088H119.258ZM127.629 14.1486C127.079 14.1486 126.787 14.5859 126.787 15.4675C126.787 16.3492 127.079 16.7935 127.629 16.7935H131.589V31.6476C131.589 32.2965 132.11 32.6068 133.159 32.6068C134.215 32.6068 134.736 32.2965 134.736 31.6476V16.7935H138.697C139.246 16.7935 139.539 16.3492 139.539 15.4675C139.539 14.5859 139.246 14.1486 138.697 14.1486H127.629ZM154.675 15.1854C154.675 14.4871 154.389 14.1486 153.811 14.1486H144.677C144.106 14.1486 143.813 14.4871 143.813 15.1854V25.1939C143.813 27.6555 143.264 29.2354 141.665 29.9901C141.166 30.2228 140.902 30.5614 140.902 31.0551C140.902 31.8803 141.558 32.6068 142.265 32.6068C142.5 32.6068 142.793 32.5292 143.135 32.4023C146.047 31.1821 146.96 28.9533 146.96 25.2221V16.7935H151.528V31.6476C151.528 32.2965 152.056 32.6068 153.105 32.6068C154.154 32.6068 154.675 32.2965 154.675 31.6476V15.1854ZM168.005 31.6476C168.005 32.2965 168.526 32.6068 169.575 32.6068C170.624 32.6068 171.152 32.2965 171.152 31.6476V19.7982C171.152 18.0137 170.545 16.5608 169.339 15.4675C168.162 14.3813 166.663 13.8382 164.879 13.8382C163.095 13.8382 161.604 14.3813 160.398 15.4675C159.213 16.5608 158.614 18.0137 158.614 19.7982V31.6476C158.614 32.2965 159.135 32.6068 160.184 32.6068C161.233 32.6068 161.761 32.2965 161.761 31.6476V25.998H168.005V31.6476ZM161.761 19.904C161.761 17.8021 163.017 16.4832 164.879 16.4832C166.742 16.4832 168.005 17.8021 168.005 19.904V23.353H161.761V19.904ZM187.208 14.8962C187.208 14.2473 186.68 13.937 185.631 13.937C185.031 13.937 184.56 14.0921 184.268 14.3813L178.238 20.0592V14.8962C178.238 14.2473 177.71 13.937 176.661 13.937C175.612 13.937 175.084 14.2473 175.084 14.8962V31.6476C175.084 32.2965 175.612 32.6068 176.661 32.6068C177.71 32.6068 178.238 32.2965 178.238 31.6476V24.0019L184.061 18.5568V31.6476C184.061 32.2965 184.582 32.6068 185.631 32.6068C186.68 32.6068 187.208 32.2965 187.208 31.6476V14.8962ZM177.788 8.98563C177.788 11.1651 179.337 12.4064 181.149 12.4064C182.955 12.4064 184.503 11.1651 184.503 8.98563C184.503 8.52011 184.139 8.28735 183.376 8.28735C182.619 8.28735 182.248 8.4919 182.248 8.93625C182.248 9.94486 181.884 10.4668 181.149 10.4668C180.414 10.4668 180.043 9.94486 180.043 8.93625C180.043 8.4919 179.679 8.28735 178.916 8.28735C178.159 8.28735 177.788 8.52011 177.788 8.98563ZM194.294 21.8225V14.8962C194.294 14.2473 193.766 13.937 192.717 13.937C191.668 13.937 191.14 14.2473 191.14 14.8962V31.6476C191.14 32.2965 191.668 32.6068 192.717 32.6068C193.766 32.6068 194.294 32.2965 194.294 31.6476V24.4674H199.853V31.6476C199.853 32.2965 200.381 32.6068 201.43 32.6068C202.479 32.6068 203 32.2965 203 31.6476V14.8962C203 14.2473 202.479 13.937 201.43 13.937C200.381 13.937 199.853 14.2473 199.853 14.8962V21.8225H194.294Z" fill="#005AB0"/>
<path fill-rule="evenodd" clip-rule="evenodd" d="M10.856 5.68169C13.1487 6.42742 15.4267 7.21918 17.7372 7.90487C20.0468 8.5892 22.3568 9.47395 24.7244 9.71455C27.6734 10.0147 30.4597 7.88816 31.3969 5.08223C31.8819 3.6278 32.6282 4.07559 33.4658 4.60193C36.818 6.70954 38.9303 9.82108 40.0547 13.4562C40.7686 15.7661 40.8686 18.2777 41.0924 20.7126C41.2161 22.0551 40.3114 22.8992 39.1386 23.5023C32.4761 26.9298 26.3781 25.6392 20.3825 21.6745C17.1156 19.5146 13.6291 17.5816 10.017 16.069C8.17602 15.298 5.84042 15.5846 3.72768 15.5715C1.38568 15.558 0.564064 14.7148 1.48616 12.6541C3.38241 8.41405 5.41613 6.07713 10.856 5.68169Z" fill="#FF854D"/>
<path fill-rule="evenodd" clip-rule="evenodd" d="M0.00264437 22.4315C-0.023388 18.8609 0.0935291 18.9692 2.66114 18.3725C7.93201 17.1469 12.2127 19.1656 16.3423 21.9833C19.4009 24.0692 22.3553 26.3091 26.051 27.3184C30.1395 28.4361 34.1137 28.3355 38.0812 26.8553C38.6425 26.6463 39.3197 26.7411 39.9432 26.6955C39.8486 27.3108 39.8655 27.9703 39.6417 28.535C37.1901 34.7242 29.9385 35.9498 23.9305 33.3465C22.1512 32.5755 20.3595 31.772 18.4952 31.2628C14.8137 30.2571 11.2249 31.8898 9.70267 35.3056C9.02218 36.8314 8.41293 36.681 7.29765 35.8681C2.38849 32.2866 0.557545 27.2038 0.00264437 22.4315Z" fill="#FF854D"/>
<path fill-rule="evenodd" clip-rule="evenodd" d="M30.9953 38.5382C28.4697 39.3155 26.4044 40.0856 24.273 40.5758C20.6609 41.4064 17.1132 41.0092 13.7431 39.4554C11.6276 38.4795 11.3874 36.2771 13.1476 34.787C14.8735 33.3253 16.9076 33.2165 18.84 33.9293C22.4183 35.2501 25.7696 37.2065 29.7083 37.4652C29.9764 37.4823 30.2202 37.8759 30.9953 38.5382Z" fill="#FF854D"/>
<path fill-rule="evenodd" clip-rule="evenodd" d="M10.9453 2.16436C12.8607 1.5518 14.7368 0.719411 16.7002 0.374988C19.9671 -0.198296 23.259 -0.213193 26.4505 1.03494C27.8955 1.59965 28.9761 2.47583 28.8985 4.04717C28.8194 5.62664 27.5758 6.62244 26.1509 6.80481C24.5666 7.00749 22.8293 6.97454 21.3089 6.53712C18.1064 5.61535 15.0022 4.36361 11.8596 3.24186C11.592 3.14571 11.3389 3.00849 11.0786 2.89067C11.0348 2.64827 10.9896 2.40631 10.9453 2.16436Z" fill="#FF854D"/>
</svg>
