<svg width="18" height="16" viewBox="0 0 18 16" fill="none" xmlns="http://www.w3.org/2000/svg">
<path d="M17.9373 0.871929L10.322 15.6408C10.2583 15.7645 10.1502 15.866 10.0147 15.9293C9.87924 15.9926 9.72396 16.0142 9.57318 15.9908C9.4224 15.9673 9.28462 15.9001 9.18138 15.7997C9.07814 15.6992 9.01527 15.5712 9.00259 15.4356L8.35876 8.57008L0.634986 7.99779C0.482439 7.98652 0.338394 7.93064 0.225378 7.83887C0.112362 7.7471 0.0367488 7.62463 0.0103634 7.4906C-0.016022 7.35658 0.00830856 7.21856 0.07955 7.09813C0.150791 6.9777 0.264926 6.88166 0.404104 6.82502L17.0193 0.055949C17.1477 0.00362503 17.2911 -0.0125117 17.4302 0.00970575C17.5692 0.0319232 17.6973 0.0914309 17.7972 0.180238C17.8971 0.269045 17.9641 0.382899 17.9891 0.50651C18.0141 0.630121 17.9959 0.757571 17.9371 0.871745L17.9373 0.871929Z" fill="white"/>
</svg>
